<svg xmlns="http://www.w3.org/2000/svg" viewBox="0 0 1024 1024" width="1024" height="1024">
  <defs>
    <!-- 底色比界面略深，保证白色笔迹有足够对比 -->
    <linearGradient id="bg" x1="0" y1="0" x2="1" y2="1">
      <stop offset="0%" stop-color="#7f5eff"/>
      <stop offset="50%" stop-color="#574af0"/>
      <stop offset="100%" stop-color="#2f57e6"/>
    </linearGradient>

    <radialGradient id="sheen" cx="0.26" cy="0.18" r="0.8">
      <stop offset="0%" stop-color="#ffffff" stop-opacity="0.18"/>
      <stop offset="62%" stop-color="#ffffff" stop-opacity="0"/>
    </radialGradient>

    <!-- 笔身：根部饱满，向锋尖转淡 -->
    <linearGradient id="brush" x1="0.12" y1="0.12" x2="0.86" y2="0.9">
      <stop offset="0%" stop-color="#ffffff"/>
      <stop offset="62%" stop-color="#ffffff"/>
      <stop offset="100%" stop-color="#d9d2ff"/>
    </linearGradient>

    <clipPath id="card">
      <rect x="0" y="0" width="1024" height="1024" rx="224" ry="224"/>
    </clipPath>
  </defs>

  <rect x="0" y="0" width="1024" height="1024" rx="224" ry="224" fill="url(#bg)"/>
  <rect x="0" y="0" width="1024" height="1024" rx="224" ry="224" fill="url(#sheen)"/>

  <g clip-path="url(#card)" stroke-linecap="round" stroke-linejoin="round" fill="none" stroke="#ffffff">
    <!--
      一笔画成的八角窗：底边左侧留缺口，笔锋正落在缺口上收笔。
      三段粗细不同，表现运笔压力；转角处圆头相接，像墨在转折处积了一点。
    -->
    <path d="M214.5 623.2 L214.5 376.8 L388.8 202.5" stroke-width="58" opacity="0.97"/>
    <path d="M388.8 202.5 L635.2 202.5 L809.5 376.8" stroke-width="38" opacity="0.94"/>
    <path d="M809.5 376.8 L809.5 623.2 L635.2 797.5 L388.8 797.5" stroke-width="22" opacity="0.9"/>

    <!-- 飞白 -->
    <circle cx="196" cy="508" r="11" fill="#ffffff" stroke="none" opacity="0.4"/>
    <circle cx="246" cy="704" r="7" fill="#ffffff" stroke="none" opacity="0.28"/>
    <circle cx="860" cy="502" r="8" fill="#ffffff" stroke="none" opacity="0.24"/>
  </g>

  <!--
    毛笔笔锋。两侧曲线在锋尖共用同一个控制点，切线合流成锐利的锋，
    笔腹下缘带一点鼓度 —— 这样才是毛笔，不是叶子。
  -->
  <path d="M528 440
           C 456 520, 376 688, 284 728
           C 376 688, 492 612, 616 522
           C 664 486, 636 424, 528 440 Z"
        fill="url(#brush)" opacity="0.98"/>

  <!-- 收锋溅墨 -->
  <circle cx="238" cy="752" r="10" fill="#ffffff" opacity="0.46"/>
  <circle cx="350" cy="782" r="6" fill="#ffffff" opacity="0.32"/>
  <circle cx="172" cy="686" r="5" fill="#ffffff" opacity="0.28"/>
</svg>
